<?xml version="1.0" standalone="no"?>
<!DOCTYPE svg PUBLIC "-//W3C//DTD SVG 20010904//EN"
 "http://www.w3.org/TR/2001/REC-SVG-20010904/DTD/svg10.dtd">
<svg version="1.0" xmlns="http://www.w3.org/2000/svg"
 width="196.000000pt" height="53.000000pt" viewBox="0 0 196.000000 53.000000"
 preserveAspectRatio="xMidYMid meet">

<g transform="translate(0.000000,53.000000) scale(0.100000,-0.100000)"
fill="#000000" stroke="none">
<path d="M189 479 c-23 -19 -23 -20 -2 -10 34 17 81 13 103 -9 11 -11 32 -22
47 -25 25 -6 26 -5 8 6 -11 7 -33 23 -48 36 -35 28 -77 30 -108 2z"/>
<path d="M116 429 c-39 -31 -34 -86 11 -114 20 -12 32 -28 33 -42 0 -21 4 -22
83 -22 93 1 80 17 -15 18 l-56 1 -7 38 c-3 20 -11 44 -16 52 -9 12 -10 10 -6
-7 4 -20 2 -21 -14 -12 -26 14 -25 63 3 89 29 26 18 26 -16 -1z"/>
<path d="M379 423 c16 -31 14 -68 -6 -84 -15 -13 -16 -11 -11 14 3 15 3 27 1
27 -9 0 -33 -71 -33 -97 1 -26 1 -27 12 -8 6 11 24 31 41 45 36 31 39 73 7
103 l-22 22 11 -22z"/>
<path d="M605 408 c-11 -32 -52 -233 -49 -237 7 -8 16 8 23 41 5 26 12 34 34
36 27 3 33 -4 51 -62 4 -10 9 -16 12 -13 8 8 -48 247 -58 247 -5 0 -11 -6 -13
-12z m34 -125 c1 -18 -4 -23 -25 -23 -18 0 -25 4 -21 14 3 7 9 35 13 62 l8 49
12 -40 c7 -22 13 -50 13 -62z"/>
<path d="M711 308 c2 -128 5 -138 28 -138 46 1 91 74 91 150 0 65 -30 100 -85
100 l-37 0 3 -112z m81 75 c27 -24 25 -110 -5 -154 -12 -19 -30 -35 -40 -37
-15 -3 -17 8 -17 102 0 102 1 106 22 106 12 0 30 -7 40 -17z"/>
<path d="M868 413 c-2 -5 -2 -61 0 -125 3 -104 5 -118 20 -118 51 0 92 67 92
148 0 65 -27 102 -75 102 -19 0 -35 -3 -37 -7z m66 -19 c23 -9 37 -72 26 -118
-8 -37 -53 -96 -64 -85 -9 8 -19 176 -13 193 7 17 24 20 51 10z"/>
<path d="M1092 318 c-12 -57 -25 -113 -28 -125 -4 -14 -2 -23 4 -23 6 0 14 16
18 35 7 41 17 49 49 41 18 -5 26 -15 31 -41 3 -19 10 -35 15 -35 12 0 12 -2
-19 129 -15 63 -32 116 -38 118 -6 2 -20 -40 -32 -99z m58 -45 c0 -7 -11 -13
-25 -13 -29 0 -29 1 -13 71 l12 52 13 -49 c7 -27 13 -55 13 -61z"/>
<path d="M1287 413 c-11 -11 -8 -243 3 -243 6 0 10 15 10 34 0 25 6 38 25 50
57 38 82 117 47 149 -18 17 -73 23 -85 10z m64 -13 c29 -16 25 -71 -7 -109
-14 -17 -30 -31 -35 -31 -5 0 -9 31 -9 69 0 63 4 74 28 80 2 1 12 -4 23 -9z"/>
<path d="M1420 295 c0 -77 4 -125 10 -125 6 0 10 48 10 125 0 77 -4 125 -10
125 -6 0 -10 -48 -10 -125z"/>
<path d="M1490 295 c0 -77 4 -125 10 -125 6 0 10 41 10 103 l1 102 40 -102
c22 -57 45 -103 50 -103 5 0 9 55 9 125 0 80 -4 125 -10 125 -7 0 -9 -34 -5
-102 l5 -103 -20 40 c-11 22 -30 68 -42 103 -36 98 -48 83 -48 -63z"/>
<path d="M1673 394 c-21 -33 -29 -131 -14 -177 19 -58 80 -62 99 -7 14 39 1
48 -14 10 -15 -35 -48 -40 -64 -11 -14 27 -13 134 2 166 17 37 50 30 65 -15
l12 -35 0 36 c1 19 -4 40 -11 47 -21 21 -56 14 -75 -14z"/>
<path d="M1804 295 c0 -69 3 -125 7 -125 4 0 9 21 11 48 3 45 4 47 36 50 l32
3 0 -50 c0 -28 5 -51 10 -51 6 0 10 48 10 125 0 77 -4 125 -10 125 -6 0 -10
-30 -10 -70 l0 -70 -35 0 -35 0 0 70 c0 39 -3 70 -7 70 -5 0 -8 -56 -9 -125z"/>
<path d="M222 360 c0 -19 2 -27 5 -17 2 9 2 25 0 35 -3 9 -5 1 -5 -18z"/>
<path d="M273 355 c0 -22 2 -30 4 -17 2 12 2 30 0 40 -3 9 -5 -1 -4 -23z"/>
<path d="M70 272 c0 -5 18 -17 40 -27 22 -10 38 -20 35 -23 -3 -3 -23 3 -45
13 -57 26 -62 11 -6 -17 55 -26 62 -45 9 -22 -21 9 -44 18 -50 21 -7 3 -13 1
-13 -5 0 -20 73 -54 104 -49 35 5 66 -7 66 -27 0 -8 -16 -26 -35 -40 -35 -27
-45 -46 -24 -46 6 0 40 21 77 47 37 26 61 40 55 32 -11 -13 -6 -21 31 -47 68
-49 95 -38 34 13 -18 15 -37 35 -42 44 -5 9 -6 13 -1 9 4 -4 14 -1 21 7 9 8
27 11 51 8 32 -4 43 -1 66 22 15 15 27 34 27 41 0 20 -44 45 -66 38 -26 -9
-64 -45 -64 -59 0 -6 -28 -26 -62 -43 -35 -18 -54 -25 -44 -17 18 14 18 15
-16 29 -23 10 -38 24 -42 41 -8 32 -106 85 -106 57z"/>
</g>
</svg>
